<?xml version="1.0" encoding="utf-8"?>
<!-- Generator: Adobe Illustrator 26.5.0, SVG Export Plug-In . SVG Version: 6.00 Build 0)  -->
<svg version="1.1" id="Layer_1" xmlns="http://www.w3.org/2000/svg" xmlns:xlink="http://www.w3.org/1999/xlink" x="0px" y="0px"
	 viewBox="0 0 1191 842" style="enable-background:new 0 0 1191 842;" xml:space="preserve">
<style type="text/css">
	.st0{fill-rule:evenodd;clip-rule:evenodd;fill:url(#SVGID_1_);}
	.st1{fill-rule:evenodd;clip-rule:evenodd;fill:#019A03;}
	.st2{fill:url(#SVGID_00000024720411000169825430000005226032115631126971_);}
	.st3{fill:url(#SVGID_00000073706566082267549270000000963070321316873104_);}
	.st4{fill:url(#SVGID_00000180362907760893543830000008885139596435574946_);}
	.st5{fill:url(#SVGID_00000071541277481041263330000016997246059489898414_);}
	.st6{fill:url(#SVGID_00000168109667617698062690000007396340854297589930_);}
	.st7{fill:url(#SVGID_00000004538655415241944220000007565744667659660698_);}
	.st8{fill:url(#SVGID_00000028290175924475617330000017260838300069881534_);}
	.st9{fill:url(#SVGID_00000166644160190284571380000008897197699663109530_);}
	.st10{fill:url(#SVGID_00000098215216759575860220000010571937126879563914_);}
	.st11{fill:url(#SVGID_00000041256086657794119970000018057400955042172800_);}
	.st12{fill:url(#SVGID_00000019656527565913186260000005504107077528956307_);}
	.st13{fill:url(#SVGID_00000088841348291671793730000008865954787554283171_);}
	.st14{fill:url(#SVGID_00000183250285082270311580000011789179714039596464_);}
	.st15{fill:url(#SVGID_00000053534381681182202310000007599674631815977856_);}
	.st16{fill:url(#SVGID_00000119104278995185364810000010181564087920280722_);}
	.st17{fill:url(#SVGID_00000070829960023897929580000007607608258204201877_);}
	.st18{fill:url(#SVGID_00000042713381344978994010000014919936124109811609_);}
	.st19{fill:url(#SVGID_00000052803845051374485120000015041838230865930403_);}
	.st20{fill:url(#SVGID_00000138539856018950066590000000265672680226149516_);}
	.st21{fill:url(#SVGID_00000096035272930909209690000004965152861907613361_);}
	.st22{fill:url(#SVGID_00000089566771995182663770000003006492395249641398_);}
	.st23{fill:url(#SVGID_00000013155072535405320110000000223907622851990667_);}
	.st24{fill:url(#SVGID_00000166660599289127684290000007769649357247943612_);}
	.st25{fill:url(#SVGID_00000061431249326056151230000007220397291697204381_);}
	.st26{fill:url(#SVGID_00000148648969854739109740000018357127237779840408_);}
	.st27{fill:url(#SVGID_00000182501637354396251190000006449481325094934410_);}
	.st28{fill:url(#SVGID_00000166634538932275477510000011651837079047339166_);}
	.st29{fill:url(#SVGID_00000065759489191074588390000008781097445230663092_);}
	.st30{fill:url(#SVGID_00000173122341164622192260000013721822331578128769_);}
	.st31{fill:url(#SVGID_00000127031021429073062070000017081410320384310658_);}
	.st32{fill:url(#SVGID_00000009570075105576897580000001302301693793354165_);}
	.st33{fill:url(#SVGID_00000152257239675201859230000007937261843330595999_);}
	.st34{fill:url(#SVGID_00000142866141118210554980000004929397643195444149_);}
	.st35{fill:url(#SVGID_00000077296990864101898410000011426807225369170568_);}
	.st36{fill:url(#SVGID_00000014625927278618580750000006916622900609679268_);}
	.st37{fill:url(#SVGID_00000061443507881411911980000015011109352000497581_);}
	.st38{fill:url(#SVGID_00000103259987234299893370000009145316299179593633_);}
	.st39{fill:url(#SVGID_00000008830679222182341630000009794835945982892735_);}
	.st40{fill:url(#SVGID_00000162311014967065103980000017287876129340961209_);}
	.st41{fill:url(#SVGID_00000055672154967627249330000008865140888430067387_);}
	.st42{fill:url(#SVGID_00000061468729402011424840000017776525142097579688_);}
	.st43{fill:url(#SVGID_00000135676561984131779210000015937149876775630995_);}
	.st44{fill:url(#SVGID_00000028320425785220127920000007816399209393390720_);}
	.st45{fill:url(#SVGID_00000041291429908601155600000012337430623834159525_);}
	.st46{opacity:0.96;fill:url(#SVGID_00000139277479561656512320000003283125409026577794_);}
	.st47{fill:url(#SVGID_00000077292631499688050430000012786357241927470242_);}
	.st48{fill:url(#SVGID_00000044149367240885865210000003145350930397108153_);}
	.st49{fill:url(#SVGID_00000000205314759793904430000011972084663184279987_);}
	.st50{fill:url(#SVGID_00000118385544420704747650000006987128849054292376_);}
	.st51{fill:url(#SVGID_00000049922844867944445060000015596272202230584196_);}
	.st52{fill:url(#SVGID_00000149340802105605022050000005152336240874802333_);}
	.st53{fill:url(#SVGID_00000179605163792610467240000011920077355081535905_);}
</style>
<g>
	<linearGradient id="SVGID_1_" gradientUnits="userSpaceOnUse" x1="260.2128" y1="420.6753" x2="670.7039" y2="420.6753">
		<stop  offset="0" style="stop-color:#A7D411"/>
		<stop  offset="1" style="stop-color:#32742E"/>
	</linearGradient>
	<path style="fill:url(#SVGID_1_);" d="M595.49,304.12c-42.66,45.61-70.23,105.56-74.61,171.9c-0.38,6.14-0.63,12.34-0.63,18.54
		v131.05c-12.78-0.81-25.31-2.57-37.52-5.07c-87.64-17.98-160.37-77.12-196.96-156.3c-16.41-35.52-25.56-75.11-25.56-116.83V215.73
		h131.68c66.78,0,128.11,23.49,176.1,62.77C577.76,286.39,586.91,294.98,595.49,304.12z"/>
	
		<linearGradient id="SVGID_00000013887101401269940670000008570768696004512952_" gradientUnits="userSpaceOnUse" x1="260.207" y1="625.9479" x2="670.7259" y2="625.9479">
		<stop  offset="0" style="stop-color:#A7D411"/>
		<stop  offset="1" style="stop-color:#32742E"/>
	</linearGradient>
	<path style="fill:url(#SVGID_00000013887101401269940670000008570768696004512952_);" d="M670.73,626.27v-0.64
		c-6.2,0.41-12.45,0.64-18.76,0.64H670.73z"/>
	
		<linearGradient id="SVGID_00000042710970525294867830000015193955179583823254_" gradientUnits="userSpaceOnUse" x1="-3416.6028" y1="-3960.9512" x2="-3006.0132" y2="-3960.9512" gradientTransform="matrix(0 1 -1 0 -3431.2822 3632.2822)">
		<stop  offset="0" style="stop-color:#FFE115"/>
		<stop  offset="1" style="stop-color:#FF8A0D"/>
	</linearGradient>
	<path style="fill:url(#SVGID_00000042710970525294867830000015193955179583823254_);" d="M520.29,626.27h18.76
		c-6.31,0-12.56-0.23-18.76-0.64V626.27z"/>
	
		<linearGradient id="SVGID_00000049943092969691763280000007940166420754645654_" gradientUnits="userSpaceOnUse" x1="595.4909" y1="420.6753" x2="931.2957" y2="420.6753">
		<stop  offset="0" style="stop-color:#FFE115"/>
		<stop  offset="1" style="stop-color:#FF8A0D"/>
	</linearGradient>
	<path style="fill:url(#SVGID_00000049943092969691763280000007940166420754645654_);" d="M930.77,215.73v131.68
		c0,134.69-95.47,247.07-222.45,273.13c-12.22,2.51-24.81,4.2-37.59,5.07V494.57c0-9.58-0.5-19.04-1.44-28.38
		c-6.33-62.39-33.2-118.71-73.8-162.06c8.58-9.15,17.73-17.73,27.5-25.62c45.1-36.84,101.86-59.76,163.94-62.46
		c4.01-0.19,8.08-0.31,12.15-0.31H930.77z"/>
	
		<linearGradient id="SVGID_00000021102386396064185420000002962749110387084473_" gradientUnits="userSpaceOnUse" x1="260.2048" y1="465.1931" x2="670.7259" y2="465.1931">
		<stop  offset="0" style="stop-color:#A7D411"/>
		<stop  offset="1" style="stop-color:#32742E"/>
	</linearGradient>
	<path style="fill:url(#SVGID_00000021102386396064185420000002962749110387084473_);" d="M595.51,304.12
		c-46.65,49.85-75.22,116.82-75.22,190.48v131.03c6.2,0.41,12.45,0.64,18.76,0.64h112.92c6.31,0,12.56-0.23,18.76-0.64V494.59
		C670.73,420.94,642.15,353.96,595.51,304.12z"/>
	
		<linearGradient id="SVGID_00000038370848591403699830000016762472337793914531_" gradientUnits="userSpaceOnUse" x1="600.3519" y1="679.3159" x2="583.8276" y2="263.1153">
		<stop  offset="0" style="stop-color:#36BAD8"/>
		<stop  offset="1" style="stop-color:#525FE0"/>
	</linearGradient>
	<path style="fill:url(#SVGID_00000038370848591403699830000016762472337793914531_);" d="M595.51,304.12
		c-46.65,49.85-75.22,116.82-75.22,190.48v131.03c6.2,0.41,12.45,0.64,18.76,0.64h112.92c6.31,0,12.56-0.23,18.76-0.64V494.59
		C670.73,420.94,642.15,353.96,595.51,304.12z"/>
	
		<linearGradient id="SVGID_00000163768445829468040760000001594284489423497145_" gradientUnits="userSpaceOnUse" x1="438.2437" y1="521.6583" x2="424.4667" y2="174.6546">
		<stop  offset="0" style="stop-color:#A7D411"/>
		<stop  offset="1" style="stop-color:#32742E"/>
	</linearGradient>
	<path style="fill:url(#SVGID_00000163768445829468040760000001594284489423497145_);" d="M595.5,304.11
		c-42.66,45.64-70.24,105.59-74.61,171.92l-72.31-72.22l-0.06-0.03L260.2,215.75h131.68c5.21,0,10.41,0.15,15.55,0.43
		c3.87,0.22,7.75,0.5,11.56,0.9c0.03,0,0.09,0,0.12,0.03c1.18,0.06,2.35,0.19,3.5,0.34C490.59,224.89,551.19,256.77,595.5,304.11z"
		/>
	
		<linearGradient id="SVGID_00000010309482832006282110000004710048840584086402_" gradientUnits="userSpaceOnUse" x1="420.8784" y1="217.5959" x2="420.854" y2="216.9809">
		<stop  offset="0" style="stop-color:#A7D411"/>
		<stop  offset="1" style="stop-color:#32742E"/>
	</linearGradient>
	<path style="fill:url(#SVGID_00000010309482832006282110000004710048840584086402_);" d="M422.62,217.45c-0.9,0-2.08-0.12-3.5-0.34
		C420.29,217.17,421.47,217.3,422.62,217.45z"/>
	
		<linearGradient id="SVGID_00000008144004686339482530000003844981985471183489_" gradientUnits="userSpaceOnUse" x1="359.4809" y1="437.9449" x2="349.5265" y2="187.2223">
		<stop  offset="0" style="stop-color:#21601E;stop-opacity:0"/>
		<stop  offset="1" style="stop-color:#21601E"/>
	</linearGradient>
	<path style="fill:url(#SVGID_00000008144004686339482530000003844981985471183489_);" d="M448.58,403.81l-0.06-0.03L260.2,215.75
		h131.68c5.21,0,10.41,0.15,15.55,0.43c-36.56,0.22-76.5,26.43-76.5,26.43L448.58,403.81z"/>
	
		<linearGradient id="SVGID_00000031204634220443191120000004130282245269110444_" gradientUnits="userSpaceOnUse" x1="938.5132" y1="169.2275" x2="696.8483" y2="617.4444">
		<stop  offset="0" style="stop-color:#FFE115"/>
		<stop  offset="1" style="stop-color:#FF8A0D"/>
	</linearGradient>
	<path style="fill:url(#SVGID_00000031204634220443191120000004130282245269110444_);" d="M930.8,215.75v131.68
		c0,147.69-114.82,268.56-260.07,278.19V494.59c0-9.6-0.5-19.09-1.43-28.41c69.18-30.02,117.61-98.96,117.61-179.17v-70.98
		c4.03-0.19,8.12-0.28,12.21-0.28H930.8z"/>
	
		<linearGradient id="SVGID_00000066480688216881955440000006345322141532347067_" gradientUnits="userSpaceOnUse" x1="420.4841" y1="473.1037" x2="259.1723" y2="327.4531">
		<stop  offset="0" style="stop-color:#4DD845;stop-opacity:0"/>
		<stop  offset="0.9675" style="stop-color:#B9D854"/>
	</linearGradient>
	<path style="fill:url(#SVGID_00000066480688216881955440000006345322141532347067_);" d="M285.77,464.25
		c-16.41-35.52-25.56-75.11-25.56-116.83V215.73h0.13l102.11,102.05l-85.07-67.91C277.38,249.87,252.63,360.25,285.77,464.25z"/>
	
		<linearGradient id="SVGID_00000022555030805467110050000006281741190184350132_" gradientUnits="userSpaceOnUse" x1="539.11" y1="346.9731" x2="539.11" y2="763.5771">
		<stop  offset="0" style="stop-color:#21601E;stop-opacity:0"/>
		<stop  offset="1" style="stop-color:#21601E"/>
	</linearGradient>
	<path style="fill:url(#SVGID_00000022555030805467110050000006281741190184350132_);" d="M567.99,278.5
		c9.77,7.89,18.92,16.48,27.5,25.62c-42.66,45.61-70.23,105.56-74.61,171.9c-0.38,6.14-0.63,12.34-0.63,18.54v131.05
		c-12.78-0.81-25.31-2.57-37.52-5.07V494.57C482.73,414,512.99,337.33,567.99,278.5z"/>
	
		<linearGradient id="SVGID_00000116205727716126107700000018147728833079708574_" gradientUnits="userSpaceOnUse" x1="651.903" y1="346.9731" x2="651.903" y2="763.5771">
		<stop  offset="0" style="stop-color:#DC713C;stop-opacity:0"/>
		<stop  offset="1" style="stop-color:#DC713C"/>
	</linearGradient>
	<path style="fill:url(#SVGID_00000116205727716126107700000018147728833079708574_);" d="M708.32,494.57v125.98
		c-12.22,2.51-24.81,4.2-37.59,5.07V494.57c0-9.58-0.5-19.04-1.44-28.38c-6.33-62.39-33.2-118.71-73.8-162.06
		c8.58-9.15,17.73-17.73,27.5-25.62C677.99,337.33,708.32,414,708.32,494.57z"/>
</g>
</svg>
