<?xml version="1.0" encoding="utf-8"?>
<!-- Generator: Adobe Illustrator 26.5.0, SVG Export Plug-In . SVG Version: 6.00 Build 0)  -->
<svg version="1.1" id="Layer_1" xmlns="http://www.w3.org/2000/svg" xmlns:xlink="http://www.w3.org/1999/xlink" x="0px" y="0px"
	 viewBox="0 0 1191 842" style="enable-background:new 0 0 1191 842;" xml:space="preserve">
<style type="text/css">
	.st0{fill-rule:evenodd;clip-rule:evenodd;fill:url(#SVGID_1_);}
	.st1{fill-rule:evenodd;clip-rule:evenodd;fill:#019A03;}
	.st2{fill:url(#SVGID_00000063625409466441393820000001055576301498964372_);}
	.st3{fill:url(#SVGID_00000070081146165265273080000008813751546400704413_);}
	.st4{fill:url(#SVGID_00000067210217306684388150000007619433719154316959_);}
	.st5{fill:url(#SVGID_00000152256339466606086680000006010344387182222227_);}
	.st6{fill:url(#SVGID_00000010991041803280956180000016036696759819843256_);}
	.st7{fill:url(#SVGID_00000047041530583338115250000015319859256517714079_);}
	.st8{fill:url(#SVGID_00000130612276158670601240000002403357748415251105_);}
	.st9{fill:url(#SVGID_00000029029930580448865810000009253454437322646199_);}
	.st10{fill:url(#SVGID_00000064348368995348631120000006998820943586272157_);}
	.st11{fill:url(#SVGID_00000064322096452323510380000000450990436295393469_);}
	.st12{fill:url(#SVGID_00000180346007504653498940000011254342346413889928_);}
	.st13{fill:url(#SVGID_00000074431412379858820960000003575289982072139148_);}
	.st14{fill:url(#SVGID_00000080179003668611151430000008520374445356223639_);}
	.st15{fill:#4B9922;}
	.st16{font-family:'Roboto-Bold';}
	.st17{font-size:60px;}
	.st18{fill:#FFFFFF;}
	.st19{font-size:40px;}
	.st20{letter-spacing:4;}
	.st21{letter-spacing:3.43;}
	.st22{fill:url(#SVGID_00000095317785463973400880000017476015641222218389_);}
	.st23{fill:url(#SVGID_00000052821990318061018190000003279613496727967134_);}
	.st24{fill:url(#SVGID_00000149362621133801536900000000117816633769365890_);}
	.st25{fill:url(#SVGID_00000071526646983217551290000007431659195414217105_);}
	.st26{fill:url(#SVGID_00000067232445759511067910000008004906060047643832_);}
	.st27{fill:url(#SVGID_00000102513123943297152420000014010354909440020133_);}
	.st28{fill:url(#SVGID_00000178171964855468931940000005807735908882605200_);}
	.st29{fill:url(#SVGID_00000182526444738763228050000016515363553669018538_);}
	.st30{fill:url(#SVGID_00000011741339266640304050000006827015840435865510_);}
	.st31{fill:url(#SVGID_00000065037583710234155530000013731925286845826436_);}
	.st32{fill:url(#SVGID_00000009560591683648417150000005601936052534937485_);}
	.st33{fill:url(#SVGID_00000009577246946475395200000001814873115426215323_);}
	.st34{fill:url(#SVGID_00000063593273287107854070000015915872723379302568_);}
	.st35{fill:url(#SVGID_00000109007480061264133540000002435359524226507679_);}
	.st36{fill:url(#SVGID_00000052793765415176062570000012064463518917776800_);}
	.st37{fill:url(#SVGID_00000012470244154749282970000016978653798801153934_);}
	.st38{fill:url(#SVGID_00000088831664557911283520000015762091729317145737_);}
	.st39{fill:url(#SVGID_00000158742979473775801860000014930545024893833899_);}
	.st40{fill:url(#SVGID_00000085223968162928613520000008144650455814513304_);}
	.st41{fill:url(#SVGID_00000119105199538151201010000010318172489730685594_);}
	.st42{fill:url(#SVGID_00000176023179567465423880000000909003698772911763_);}
	.st43{fill:url(#SVGID_00000064312973437079744250000014208620750244153234_);}
	.st44{fill:url(#SVGID_00000121240729540359580890000008955892947624917173_);}
	.st45{fill:url(#SVGID_00000113340772888555767360000007400308101270851771_);}
	.st46{fill:url(#SVGID_00000106861183972112454500000014659091393510827927_);}
	.st47{fill:url(#SVGID_00000022546848084516379390000012626383312708492180_);}
	.st48{fill:url(#SVGID_00000065059684372809984240000004055590046789314490_);}
	.st49{fill:url(#SVGID_00000155110498167775963630000009965252410011145384_);}
	.st50{fill:url(#SVGID_00000093894995020011779090000007649369570595950258_);}
	.st51{fill:url(#SVGID_00000034785573720111236220000005351624085149752708_);}
	.st52{fill:url(#SVGID_00000057847266390854062380000004390221041361539006_);}
	.st53{opacity:0.96;fill:url(#SVGID_00000057112402910535682690000003259168502676679869_);}
	.st54{fill:url(#SVGID_00000123411443991107604600000005962696909318993294_);}
	.st55{fill:url(#SVGID_00000079443935785878220220000006287083422132813718_);}
	.st56{fill:url(#SVGID_00000114792333561867368090000001030653656493076609_);}
	.st57{fill:url(#SVGID_00000067944567212789285230000011795580089680652452_);}
	.st58{fill:url(#SVGID_00000053534180330747261370000005976842294245246860_);}
	.st59{fill:url(#SVGID_00000154425966842130825340000003651524220950266524_);}
	.st60{fill:url(#SVGID_00000013891330320434228250000012504481180513820072_);}
</style>
<g>
	<text transform="matrix(1 0 0 1 181.6958 598.5997)" class="st15 st16 st17">UNIVERSAL FUEL INDUSTRIES</text>
	<text transform="matrix(1 0 0 1 364.3245 656.3594)" class="st18 st16 st19 st20">The 21</text>
	<text transform="matrix(0.583 0 0 0.583 512.9339 643.0391)" class="st18 st16 st19 st21">st</text>
	<text transform="matrix(1 0 0 1 537.4681 656.3594)" class="st18 st16 st19 st20"> Century Fuel</text>
	<g>
		<linearGradient id="SVGID_1_" gradientUnits="userSpaceOnUse" x1="323.5031" y1="341.0582" x2="656.5073" y2="341.0582">
			<stop  offset="0" style="stop-color:#A7D411"/>
			<stop  offset="1" style="stop-color:#32742E"/>
		</linearGradient>
		<path style="fill:url(#SVGID_1_);" d="M595.49,246.51c-34.61,37-56.97,85.63-60.53,139.45c-0.3,4.98-0.51,10.01-0.51,15.04v106.32
			c-10.37-0.66-20.53-2.08-30.44-4.12c-71.1-14.59-130.1-62.56-159.78-126.8c-13.31-28.82-20.73-60.93-20.73-94.78V174.8h106.82
			c54.17,0,103.93,19.06,142.85,50.92C581.11,232.13,588.53,239.09,595.49,246.51z"/>
		
			<linearGradient id="SVGID_00000004503880356254944520000010734484591204551863_" gradientUnits="userSpaceOnUse" x1="323.4984" y1="507.5822" x2="656.5251" y2="507.5822">
			<stop  offset="0" style="stop-color:#A7D411"/>
			<stop  offset="1" style="stop-color:#32742E"/>
		</linearGradient>
		<path style="fill:url(#SVGID_00000004503880356254944520000010734484591204551863_);" d="M656.53,507.84v-0.52
			c-5.03,0.33-10.1,0.52-15.22,0.52H656.53z"/>
		
			<linearGradient id="SVGID_00000049210735996804168350000001650496929007767703_" gradientUnits="userSpaceOnUse" x1="-1236.9889" y1="-3618.2917" x2="-903.9048" y2="-3618.2917" gradientTransform="matrix(0 1 -1 0 -3076.1968 1411.7477)">
			<stop  offset="0" style="stop-color:#FFE115"/>
			<stop  offset="1" style="stop-color:#FF8A0D"/>
		</linearGradient>
		<path style="fill:url(#SVGID_00000049210735996804168350000001650496929007767703_);" d="M534.49,507.84h15.22
			c-5.12,0-10.19-0.19-15.22-0.52V507.84z"/>
		
			<linearGradient id="SVGID_00000113316069830861278910000000252353960073716159_" gradientUnits="userSpaceOnUse" x1="595.492" y1="341.0582" x2="867.9081" y2="341.0582">
			<stop  offset="0" style="stop-color:#FFE115"/>
			<stop  offset="1" style="stop-color:#FF8A0D"/>
		</linearGradient>
		<path style="fill:url(#SVGID_00000113316069830861278910000000252353960073716159_);" d="M867.48,174.8v106.82
			c0,109.26-77.45,200.43-180.46,221.58c-9.91,2.03-20.12,3.4-30.49,4.12V401c0-7.78-0.41-15.45-1.17-23.02
			c-5.13-50.62-26.93-96.3-59.87-131.47c6.96-7.42,14.38-14.38,22.31-20.79c36.59-29.88,82.63-48.48,133-50.67
			c3.25-0.15,6.56-0.25,9.86-0.25H867.48z"/>
		
			<linearGradient id="SVGID_00000168816332066867727030000006240388463113578631_" gradientUnits="userSpaceOnUse" x1="323.4966" y1="377.1726" x2="656.5251" y2="377.1726">
			<stop  offset="0" style="stop-color:#A7D411"/>
			<stop  offset="1" style="stop-color:#32742E"/>
		</linearGradient>
		<path style="fill:url(#SVGID_00000168816332066867727030000006240388463113578631_);" d="M595.51,246.5
			c-37.84,40.44-61.02,94.77-61.02,154.52v106.3c5.03,0.33,10.1,0.52,15.22,0.52h91.6c5.12,0,10.19-0.19,15.22-0.52v-106.3
			C656.53,341.27,633.35,286.94,595.51,246.5z"/>
		
			<linearGradient id="SVGID_00000121986144553645645300000011926531464492458140_" gradientUnits="userSpaceOnUse" x1="599.4354" y1="550.8762" x2="586.0303" y2="213.2403">
			<stop  offset="0" style="stop-color:#36BAD8"/>
			<stop  offset="1" style="stop-color:#525FE0"/>
		</linearGradient>
		<path style="fill:url(#SVGID_00000121986144553645645300000011926531464492458140_);" d="M595.51,246.5
			c-37.84,40.44-61.02,94.77-61.02,154.52v106.3c5.03,0.33,10.1,0.52,15.22,0.52h91.6c5.12,0,10.19-0.19,15.22-0.52v-106.3
			C656.53,341.27,633.35,286.94,595.51,246.5z"/>
		
			<linearGradient id="SVGID_00000092455698390035541150000011117378537900701364_" gradientUnits="userSpaceOnUse" x1="467.9278" y1="422.9791" x2="456.7514" y2="141.4779">
			<stop  offset="0" style="stop-color:#A7D411"/>
			<stop  offset="1" style="stop-color:#32742E"/>
		</linearGradient>
		<path style="fill:url(#SVGID_00000092455698390035541150000011117378537900701364_);" d="M595.5,246.5
			c-34.61,37.02-56.98,85.66-60.52,139.47l-58.66-58.59l-0.05-0.03L323.5,174.81h106.82c4.22,0,8.45,0.13,12.62,0.35
			c3.14,0.18,6.28,0.4,9.37,0.73c0.03,0,0.08,0,0.1,0.03c0.96,0.05,1.91,0.15,2.84,0.28C510.39,182.23,559.56,208.09,595.5,246.5z"
			/>
		
			<linearGradient id="SVGID_00000052783590582713696110000009360428496647166863_" gradientUnits="userSpaceOnUse" x1="453.8405" y1="176.3134" x2="453.8206" y2="175.8144">
			<stop  offset="0" style="stop-color:#A7D411"/>
			<stop  offset="1" style="stop-color:#32742E"/>
		</linearGradient>
		<path style="fill:url(#SVGID_00000052783590582713696110000009360428496647166863_);" d="M455.25,176.2
			c-0.73,0-1.68-0.1-2.84-0.28C453.37,175.97,454.32,176.07,455.25,176.2z"/>
		
			<linearGradient id="SVGID_00000170962191995281587130000017535806464654160308_" gradientUnits="userSpaceOnUse" x1="404.0327" y1="355.068" x2="395.9574" y2="151.6733">
			<stop  offset="0" style="stop-color:#21601E;stop-opacity:0"/>
			<stop  offset="1" style="stop-color:#21601E"/>
		</linearGradient>
		<path style="fill:url(#SVGID_00000170962191995281587130000017535806464654160308_);" d="M476.31,327.38l-0.05-0.03L323.5,174.81
			h106.82c4.22,0,8.45,0.13,12.62,0.35c-29.66,0.18-62.06,21.44-62.06,21.44L476.31,327.38z"/>
		
			<linearGradient id="SVGID_00000132084860993522629160000010848847757075046809_" gradientUnits="userSpaceOnUse" x1="873.7633" y1="137.0753" x2="677.7166" y2="500.6839">
			<stop  offset="0" style="stop-color:#FFE115"/>
			<stop  offset="1" style="stop-color:#FF8A0D"/>
		</linearGradient>
		<path style="fill:url(#SVGID_00000132084860993522629160000010848847757075046809_);" d="M867.5,174.81v106.82
			c0,119.81-93.15,217.86-210.98,225.68V401.02c0-7.79-0.4-15.48-1.16-23.05c56.12-24.35,95.41-80.28,95.41-145.35v-57.58
			c3.27-0.15,6.59-0.23,9.9-0.23H867.5z"/>
		
			<linearGradient id="SVGID_00000069389097683084185870000005385655726538035110_" gradientUnits="userSpaceOnUse" x1="453.5206" y1="383.5899" x2="322.659" y2="265.4333">
			<stop  offset="0" style="stop-color:#4DD845;stop-opacity:0"/>
			<stop  offset="0.9675" style="stop-color:#B9D854"/>
		</linearGradient>
		<path style="fill:url(#SVGID_00000069389097683084185870000005385655726538035110_);" d="M344.24,376.4
			c-13.31-28.82-20.73-60.93-20.73-94.78V174.8h0.1l82.84,82.79l-69.01-55.09C337.43,202.5,317.35,292.04,344.24,376.4z"/>
		
			<linearGradient id="SVGID_00000065060418944833555720000004777138377863969164_" gradientUnits="userSpaceOnUse" x1="549.754" y1="281.2685" x2="549.754" y2="619.2318">
			<stop  offset="0" style="stop-color:#21601E;stop-opacity:0"/>
			<stop  offset="1" style="stop-color:#21601E"/>
		</linearGradient>
		<path style="fill:url(#SVGID_00000065060418944833555720000004777138377863969164_);" d="M573.18,225.72
			c7.93,6.4,15.35,13.37,22.31,20.79c-34.61,37-56.97,85.63-60.53,139.45c-0.3,4.98-0.51,10.01-0.51,15.04v106.32
			c-10.37-0.66-20.53-2.08-30.44-4.12V401C504.02,335.65,528.56,273.44,573.18,225.72z"/>
		
			<linearGradient id="SVGID_00000080919160505350565260000011924927081471658167_" gradientUnits="userSpaceOnUse" x1="641.2554" y1="281.2685" x2="641.2554" y2="619.2318">
			<stop  offset="0" style="stop-color:#DC713C;stop-opacity:0"/>
			<stop  offset="1" style="stop-color:#DC713C"/>
		</linearGradient>
		<path style="fill:url(#SVGID_00000080919160505350565260000011924927081471658167_);" d="M687.02,401v102.2
			c-9.91,2.03-20.12,3.4-30.49,4.12V401c0-7.78-0.41-15.45-1.17-23.02c-5.13-50.62-26.93-96.3-59.87-131.47
			c6.96-7.42,14.38-14.38,22.31-20.79C662.42,273.44,687.02,335.65,687.02,401z"/>
	</g>
</g>
</svg>
