<?xml version="1.0" encoding="utf-8"?>
<!-- Generator: Adobe Illustrator 26.5.0, SVG Export Plug-In . SVG Version: 6.00 Build 0)  -->
<svg version="1.1" id="Layer_1" xmlns="http://www.w3.org/2000/svg" xmlns:xlink="http://www.w3.org/1999/xlink" x="0px" y="0px"
	 viewBox="0 0 1191 842" style="enable-background:new 0 0 1191 842;" xml:space="preserve">
<style type="text/css">
	.st0{fill-rule:evenodd;clip-rule:evenodd;fill:url(#SVGID_1_);}
	.st1{fill-rule:evenodd;clip-rule:evenodd;fill:#019A03;}
	.st2{fill:url(#SVGID_00000026872245696437361150000004420008531297006744_);}
	.st3{fill:url(#SVGID_00000085214494006690623280000017052578761471152531_);}
	.st4{fill:url(#SVGID_00000158741479454213437070000007912666092344316334_);}
	.st5{fill:url(#SVGID_00000031913255180631315660000005441544081366910892_);}
	.st6{fill:url(#SVGID_00000084518718101278714340000001909495061291999373_);}
	.st7{fill:url(#SVGID_00000152239931872652600470000009454964555393314716_);}
	.st8{fill:url(#SVGID_00000138571094708839092100000004629434492598533534_);}
	.st9{fill:url(#SVGID_00000016050138229890606250000018081847225577653142_);}
	.st10{fill:url(#SVGID_00000134216296594061801110000017139123470427752594_);}
	.st11{fill:url(#SVGID_00000157303469975839429950000014862014371057163666_);}
	.st12{fill:url(#SVGID_00000158010790659622637370000011520597054558703233_);}
	.st13{fill:url(#SVGID_00000174564306672086881880000000936236568814738363_);}
	.st14{fill:url(#SVGID_00000067926267160284739020000005865894588741628572_);}
	.st15{fill:url(#SVGID_00000033358502481949617370000009466395290151390081_);}
	.st16{fill:url(#SVGID_00000118366097874300308260000013443757409303614118_);}
	.st17{fill:url(#SVGID_00000096059390663284659210000000815142797268181636_);}
	.st18{fill:url(#SVGID_00000021084283331536696480000000992458492058886332_);}
	.st19{fill:url(#SVGID_00000059268010209658166220000009871583873163124400_);}
	.st20{fill:url(#SVGID_00000113330337280722417520000002373891005956418231_);}
	.st21{fill:url(#SVGID_00000054243496256874179270000006949676138793571207_);}
	.st22{fill:url(#SVGID_00000052827015620377925210000003458134634777431940_);}
	.st23{fill:url(#SVGID_00000029732358779674217240000013147961173694737543_);}
	.st24{fill:url(#SVGID_00000063618664751956273320000016955781421250419330_);}
	.st25{fill:url(#SVGID_00000129917482190453683930000013143919503037892506_);}
	.st26{fill:url(#SVGID_00000073715161826931878370000016921729838181657494_);}
	.st27{fill:url(#SVGID_00000177473800153577740790000008256275384970633390_);}
	.st28{fill:#4B9922;}
	.st29{font-family:'Roboto-Bold';}
	.st30{font-size:60px;}
	.st31{font-size:40px;}
	.st32{letter-spacing:4;}
	.st33{letter-spacing:3.43;}
	.st34{fill:url(#SVGID_00000047030056824027756720000016222585740617528745_);}
	.st35{fill:url(#SVGID_00000142886053081979809550000016527417291454839466_);}
	.st36{fill:url(#SVGID_00000008107933514303731990000008990311169206411398_);}
	.st37{fill:url(#SVGID_00000124151069315969721390000000170819845273487281_);}
	.st38{fill:url(#SVGID_00000147938974484163739420000013868173716568427653_);}
	.st39{fill:url(#SVGID_00000076589963201242645270000014287892560212883865_);}
	.st40{fill:url(#SVGID_00000141456474209163003510000015860844355920558214_);}
	.st41{fill:url(#SVGID_00000145050666250548311440000008963405821305684120_);}
	.st42{fill:url(#SVGID_00000106128661496220430210000016259612766512196776_);}
	.st43{fill:url(#SVGID_00000162347675874405756190000015498068925406580911_);}
	.st44{fill:url(#SVGID_00000018916042457255768080000002983262584252084889_);}
	.st45{fill:url(#SVGID_00000067223235317826630930000014892020953929299385_);}
	.st46{fill:url(#SVGID_00000163069674485892534860000011760833990316041390_);}
	.st47{fill:url(#SVGID_00000007430568766433235080000000863232876151556535_);}
	.st48{fill:url(#SVGID_00000026865442569152417920000010183399487911787702_);}
	.st49{fill:url(#SVGID_00000166642284790213304200000000071013172648170625_);}
	.st50{fill:url(#SVGID_00000167364648560497321020000007500783914122647217_);}
	.st51{fill:url(#SVGID_00000121994247691546333940000002501349456833055370_);}
	.st52{opacity:0.96;fill:url(#SVGID_00000077295789848769973060000011668519383090346929_);}
	.st53{fill:url(#SVGID_00000148650662086783373040000009474060519829594046_);}
	.st54{fill:url(#SVGID_00000123436434979152555870000002933308409040661667_);}
	.st55{fill:url(#SVGID_00000044864413185833869620000004760135424648715660_);}
	.st56{fill:url(#SVGID_00000155133001975871301780000017557036950503461561_);}
	.st57{fill:url(#SVGID_00000177475712308529920560000010878394031148274846_);}
	.st58{fill:url(#SVGID_00000062190780854936556550000012390049836210690217_);}
	.st59{fill:url(#SVGID_00000026122201223569604850000012306044235447155135_);}
</style>
<text transform="matrix(1 0 0 1 200.2919 577.7675)" class="st28 st29 st30">UNIVERSAL FUEL INDUSTRIES</text>
<text transform="matrix(1 0 0 1 382.9206 635.5272)" class="st29 st31 st32">The 21</text>
<text transform="matrix(0.583 0 0 0.583 531.53 622.2069)" class="st29 st31 st33">st</text>
<text transform="matrix(1 0 0 1 556.0641 635.5272)" class="st29 st31 st32"> Century Fuel</text>
<g>
	<linearGradient id="SVGID_1_" gradientUnits="userSpaceOnUse" x1="342.0993" y1="320.226" x2="675.1034" y2="320.226">
		<stop  offset="0" style="stop-color:#A7D411"/>
		<stop  offset="1" style="stop-color:#32742E"/>
	</linearGradient>
	<path style="fill:url(#SVGID_1_);" d="M614.09,225.68c-34.61,37-56.97,85.63-60.53,139.45c-0.3,4.98-0.51,10.01-0.51,15.04v106.32
		c-10.37-0.66-20.53-2.08-30.44-4.12c-71.1-14.59-130.1-62.56-159.78-126.8c-13.31-28.82-20.73-60.93-20.73-94.78V153.97h106.82
		c54.17,0,103.93,19.06,142.85,50.92C599.71,211.29,607.13,218.26,614.09,225.68z"/>
	
		<linearGradient id="SVGID_00000077312129997814834380000006817916849293589176_" gradientUnits="userSpaceOnUse" x1="342.0945" y1="486.7501" x2="675.1213" y2="486.7501">
		<stop  offset="0" style="stop-color:#A7D411"/>
		<stop  offset="1" style="stop-color:#32742E"/>
	</linearGradient>
	<path style="fill:url(#SVGID_00000077312129997814834380000006817916849293589176_);" d="M675.12,487.01v-0.52
		c-5.03,0.33-10.1,0.52-15.22,0.52H675.12z"/>
	
		<linearGradient id="SVGID_00000041998314135167062630000004220566023842926228_" gradientUnits="userSpaceOnUse" x1="-2190.5457" y1="-2704.1633" x2="-1857.4615" y2="-2704.1633" gradientTransform="matrix(0 1 -1 0 -2143.4722 2344.4722)">
		<stop  offset="0" style="stop-color:#FFE115"/>
		<stop  offset="1" style="stop-color:#FF8A0D"/>
	</linearGradient>
	<path style="fill:url(#SVGID_00000041998314135167062630000004220566023842926228_);" d="M553.08,487.01h15.22
		c-5.12,0-10.19-0.19-15.22-0.52V487.01z"/>
	
		<linearGradient id="SVGID_00000077308750576963571170000012788663293598986133_" gradientUnits="userSpaceOnUse" x1="614.0881" y1="320.226" x2="886.5043" y2="320.226">
		<stop  offset="0" style="stop-color:#FFE115"/>
		<stop  offset="1" style="stop-color:#FF8A0D"/>
	</linearGradient>
	<path style="fill:url(#SVGID_00000077308750576963571170000012788663293598986133_);" d="M886.08,153.97v106.82
		c0,109.26-77.45,200.43-180.46,221.58c-9.91,2.03-20.12,3.4-30.49,4.12V380.17c0-7.78-0.41-15.45-1.17-23.02
		c-5.13-50.62-26.93-96.3-59.87-131.47c6.96-7.42,14.38-14.38,22.31-20.79c36.59-29.88,82.63-48.48,133-50.67
		c3.25-0.15,6.56-0.25,9.86-0.25H886.08z"/>
	
		<linearGradient id="SVGID_00000015323856837126416940000012845409182586735284_" gradientUnits="userSpaceOnUse" x1="342.0927" y1="356.3404" x2="675.1213" y2="356.3404">
		<stop  offset="0" style="stop-color:#A7D411"/>
		<stop  offset="1" style="stop-color:#32742E"/>
	</linearGradient>
	<path style="fill:url(#SVGID_00000015323856837126416940000012845409182586735284_);" d="M614.1,225.67
		c-37.84,40.44-61.02,94.77-61.02,154.52v106.3c5.03,0.33,10.1,0.52,15.22,0.52h91.6c5.12,0,10.19-0.19,15.22-0.52v-106.3
		C675.12,320.44,651.94,266.11,614.1,225.67z"/>
	
		<linearGradient id="SVGID_00000126305067534393808630000007682013425890379917_" gradientUnits="userSpaceOnUse" x1="618.0315" y1="530.044" x2="604.6265" y2="192.4081">
		<stop  offset="0" style="stop-color:#36BAD8"/>
		<stop  offset="1" style="stop-color:#525FE0"/>
	</linearGradient>
	<path style="fill:url(#SVGID_00000126305067534393808630000007682013425890379917_);" d="M614.1,225.67
		c-37.84,40.44-61.02,94.77-61.02,154.52v106.3c5.03,0.33,10.1,0.52,15.22,0.52h91.6c5.12,0,10.19-0.19,15.22-0.52v-106.3
		C675.12,320.44,651.94,266.11,614.1,225.67z"/>
	
		<linearGradient id="SVGID_00000107546718163514062430000016577067355323136390_" gradientUnits="userSpaceOnUse" x1="486.5239" y1="402.1469" x2="475.3475" y2="120.6457">
		<stop  offset="0" style="stop-color:#A7D411"/>
		<stop  offset="1" style="stop-color:#32742E"/>
	</linearGradient>
	<path style="fill:url(#SVGID_00000107546718163514062430000016577067355323136390_);" d="M614.1,225.66
		c-34.61,37.02-56.98,85.66-60.52,139.47l-58.66-58.59l-0.05-0.03L342.09,153.98h106.82c4.22,0,8.45,0.13,12.62,0.35
		c3.14,0.18,6.28,0.4,9.37,0.73c0.03,0,0.08,0,0.1,0.03c0.96,0.05,1.91,0.15,2.84,0.28C528.99,161.4,578.15,187.26,614.1,225.66z"/>
	
		<linearGradient id="SVGID_00000049907463635517614090000014092656635860833952_" gradientUnits="userSpaceOnUse" x1="472.4366" y1="155.4812" x2="472.4167" y2="154.9822">
		<stop  offset="0" style="stop-color:#A7D411"/>
		<stop  offset="1" style="stop-color:#32742E"/>
	</linearGradient>
	<path style="fill:url(#SVGID_00000049907463635517614090000014092656635860833952_);" d="M473.85,155.36
		c-0.73,0-1.68-0.1-2.84-0.28C471.96,155.14,472.92,155.24,473.85,155.36z"/>
	
		<linearGradient id="SVGID_00000021103453739436295740000000548369961886752392_" gradientUnits="userSpaceOnUse" x1="422.6288" y1="334.2357" x2="414.5535" y2="130.8411">
		<stop  offset="0" style="stop-color:#21601E;stop-opacity:0"/>
		<stop  offset="1" style="stop-color:#21601E"/>
	</linearGradient>
	<path style="fill:url(#SVGID_00000021103453739436295740000000548369961886752392_);" d="M494.91,306.55l-0.05-0.03L342.09,153.98
		h106.82c4.22,0,8.45,0.13,12.62,0.35c-29.66,0.18-62.06,21.44-62.06,21.44L494.91,306.55z"/>
	
		<linearGradient id="SVGID_00000107560840993306740600000017906592650074114226_" gradientUnits="userSpaceOnUse" x1="892.3594" y1="116.2431" x2="696.3127" y2="479.8517">
		<stop  offset="0" style="stop-color:#FFE115"/>
		<stop  offset="1" style="stop-color:#FF8A0D"/>
	</linearGradient>
	<path style="fill:url(#SVGID_00000107560840993306740600000017906592650074114226_);" d="M886.1,153.98V260.8
		c0,119.81-93.15,217.86-210.98,225.68V380.19c0-7.79-0.4-15.48-1.16-23.05c56.12-24.35,95.41-80.28,95.41-145.35v-57.58
		c3.27-0.15,6.59-0.23,9.9-0.23H886.1z"/>
	
		<linearGradient id="SVGID_00000054262336834083260050000006855610543263181450_" gradientUnits="userSpaceOnUse" x1="472.1167" y1="362.7578" x2="341.2551" y2="244.6011">
		<stop  offset="0" style="stop-color:#4DD845;stop-opacity:0"/>
		<stop  offset="0.9675" style="stop-color:#B9D854"/>
	</linearGradient>
	<path style="fill:url(#SVGID_00000054262336834083260050000006855610543263181450_);" d="M362.83,355.57
		c-13.31-28.82-20.73-60.93-20.73-94.78V153.97h0.1l82.84,82.79l-69.01-55.09C356.02,181.67,335.95,271.21,362.83,355.57z"/>
	
		<linearGradient id="SVGID_00000011748897430586532850000007852464422087499925_" gradientUnits="userSpaceOnUse" x1="568.35" y1="260.4363" x2="568.35" y2="598.3995">
		<stop  offset="0" style="stop-color:#21601E;stop-opacity:0"/>
		<stop  offset="1" style="stop-color:#21601E"/>
	</linearGradient>
	<path style="fill:url(#SVGID_00000011748897430586532850000007852464422087499925_);" d="M591.78,204.89
		c7.93,6.4,15.35,13.37,22.31,20.79c-34.61,37-56.97,85.63-60.53,139.45c-0.3,4.98-0.51,10.01-0.51,15.04v106.32
		c-10.37-0.66-20.53-2.08-30.44-4.12v-102.2C522.61,314.81,547.16,252.61,591.78,204.89z"/>
	
		<linearGradient id="SVGID_00000098899997971514140930000015508442891532775584_" gradientUnits="userSpaceOnUse" x1="659.8516" y1="260.4363" x2="659.8516" y2="598.3995">
		<stop  offset="0" style="stop-color:#DC713C;stop-opacity:0"/>
		<stop  offset="1" style="stop-color:#DC713C"/>
	</linearGradient>
	<path style="fill:url(#SVGID_00000098899997971514140930000015508442891532775584_);" d="M705.61,380.17v102.2
		c-9.91,2.03-20.12,3.4-30.49,4.12V380.17c0-7.78-0.41-15.45-1.17-23.02c-5.13-50.62-26.93-96.3-59.87-131.47
		c6.96-7.42,14.38-14.38,22.31-20.79C681.02,252.61,705.61,314.81,705.61,380.17z"/>
</g>
</svg>
